ModelForces
version=1
nRows=4
nColumns=206
inDegrees=no

This file contains the forces exerted on a model during a simulation.

A force is a generalized force, meaning that it can be either a force (N) or a torque (Nm).

Units are S.I. units (second, meters, Newtons, ...)
Angles are in degrees.

endheader
time	glut_med1_r	glut_med2_r	glut_med3_r	glut_min1_r	glut_min2_r	glut_min3_r	semimem_r	semiten_r	bifemlh_r	bifemsh_r	sar_r	add_long_r	add_brev_r	add_mag1_r	add_mag2_r	add_mag3_r	tfl_r	pect_r	grac_r	glut_max1_r	glut_max2_r	glut_max3_r	iliacus_r	psoas_r	quad_fem_r	gem_r	peri_r	rect_fem_r	vas_med_r	vas_int_r	vas_lat_r	med_gas_r	lat_gas_r	soleus_r	tib_post_r	flex_dig_r	flex_hal_r	tib_ant_r	per_brev_r	per_long_r	per_tert_r	ext_dig_r	ext_hal_r	glut_med1_l	glut_med2_l	glut_med3_l	glut_min1_l	glut_min2_l	glut_min3_l	semimem_l	semiten_l	bifemlh_l	bifemsh_l	sar_l	add_long_l	add_brev_l	add_mag1_l	add_mag2_l	add_mag3_l	tfl_l	pect_l	grac_l	glut_max1_l	glut_max2_l	glut_max3_l	iliacus_l	psoas_l	quad_fem_l	gem_l	peri_l	rect_fem_l	vas_med_l	vas_int_l	vas_lat_l	med_gas_l	lat_gas_l	soleus_l	tib_post_l	flex_dig_l	flex_hal_l	tib_ant_l	per_brev_l	per_long_l	per_tert_l	ext_dig_l	ext_hal_l	ercspn_r	ercspn_l	intobl_r	intobl_l	extobl_r	extobl_l	femur_lat_meniscii_l.femur_lat_l.force.X	femur_lat_meniscii_l.femur_lat_l.force.Y	femur_lat_meniscii_l.femur_lat_l.force.Z	femur_lat_meniscii_l.femur_lat_l.torque.X	femur_lat_meniscii_l.femur_lat_l.torque.Y	femur_lat_meniscii_l.femur_lat_l.torque.Z	femur_lat_meniscii_l.meniscus_lat_l.force.X	femur_lat_meniscii_l.meniscus_lat_l.force.Y	femur_lat_meniscii_l.meniscus_lat_l.force.Z	femur_lat_meniscii_l.meniscus_lat_l.torque.X	femur_lat_meniscii_l.meniscus_lat_l.torque.Y	femur_lat_meniscii_l.meniscus_lat_l.torque.Z	femur_med_meniscii_l.femur_med_l.force.X	femur_med_meniscii_l.femur_med_l.force.Y	femur_med_meniscii_l.femur_med_l.force.Z	femur_med_meniscii_l.femur_med_l.torque.X	femur_med_meniscii_l.femur_med_l.torque.Y	femur_med_meniscii_l.femur_med_l.torque.Z	femur_med_meniscii_l.meniscus_med_l.force.X	femur_med_meniscii_l.meniscus_med_l.force.Y	femur_med_meniscii_l.meniscus_med_l.force.Z	femur_med_meniscii_l.meniscus_med_l.torque.X	femur_med_meniscii_l.meniscus_med_l.torque.Y	femur_med_meniscii_l.meniscus_med_l.torque.Z	femur_lat_meniscii_r.femur_lat_r.force.X	femur_lat_meniscii_r.femur_lat_r.force.Y	femur_lat_meniscii_r.femur_lat_r.force.Z	femur_lat_meniscii_r.femur_lat_r.torque.X	femur_lat_meniscii_r.femur_lat_r.torque.Y	femur_lat_meniscii_r.femur_lat_r.torque.Z	femur_lat_meniscii_r.meniscus_lat_r.force.X	femur_lat_meniscii_r.meniscus_lat_r.force.Y	femur_lat_meniscii_r.meniscus_lat_r.force.Z	femur_lat_meniscii_r.meniscus_lat_r.torque.X	femur_lat_meniscii_r.meniscus_lat_r.torque.Y	femur_lat_meniscii_r.meniscus_lat_r.torque.Z	femur_med_meniscii_r.femur_med_r.force.X	femur_med_meniscii_r.femur_med_r.force.Y	femur_med_meniscii_r.femur_med_r.force.Z	femur_med_meniscii_r.femur_med_r.torque.X	femur_med_meniscii_r.femur_med_r.torque.Y	femur_med_meniscii_r.femur_med_r.torque.Z	femur_med_meniscii_r.meniscus_med_r.force.X	femur_med_meniscii_r.meniscus_med_r.force.Y	femur_med_meniscii_r.meniscus_med_r.force.Z	femur_med_meniscii_r.meniscus_med_r.torque.X	femur_med_meniscii_r.meniscus_med_r.torque.Y	femur_med_meniscii_r.meniscus_med_r.torque.Z	femur_med_tibia_l.tibia_upper_l.force.X	femur_med_tibia_l.tibia_upper_l.force.Y	femur_med_tibia_l.tibia_upper_l.force.Z	femur_med_tibia_l.tibia_upper_l.torque.X	femur_med_tibia_l.tibia_upper_l.torque.Y	femur_med_tibia_l.tibia_upper_l.torque.Z	femur_med_tibia_l.femur_med_l.force.X	femur_med_tibia_l.femur_med_l.force.Y	femur_med_tibia_l.femur_med_l.force.Z	femur_med_tibia_l.femur_med_l.torque.X	femur_med_tibia_l.femur_med_l.torque.Y	femur_med_tibia_l.femur_med_l.torque.Z	femur_lat_tibia_l.tibia_upper_l.force.X	femur_lat_tibia_l.tibia_upper_l.force.Y	femur_lat_tibia_l.tibia_upper_l.force.Z	femur_lat_tibia_l.tibia_upper_l.torque.X	femur_lat_tibia_l.tibia_upper_l.torque.Y	femur_lat_tibia_l.tibia_upper_l.torque.Z	femur_lat_tibia_l.femur_lat_l.force.X	femur_lat_tibia_l.femur_lat_l.force.Y	femur_lat_tibia_l.femur_lat_l.force.Z	femur_lat_tibia_l.femur_lat_l.torque.X	femur_lat_tibia_l.femur_lat_l.torque.Y	femur_lat_tibia_l.femur_lat_l.torque.Z	femur_med_tibia_r.tibia_upper_r.force.X	femur_med_tibia_r.tibia_upper_r.force.Y	femur_med_tibia_r.tibia_upper_r.force.Z	femur_med_tibia_r.tibia_upper_r.torque.X	femur_med_tibia_r.tibia_upper_r.torque.Y	femur_med_tibia_r.tibia_upper_r.torque.Z	femur_med_tibia_r.femur_med_r.force.X	femur_med_tibia_r.femur_med_r.force.Y	femur_med_tibia_r.femur_med_r.force.Z	femur_med_tibia_r.femur_med_r.torque.X	femur_med_tibia_r.femur_med_r.torque.Y	femur_med_tibia_r.femur_med_r.torque.Z	femur_lat_tibia_r.tibia_upper_r.force.X	femur_lat_tibia_r.tibia_upper_r.force.Y	femur_lat_tibia_r.tibia_upper_r.force.Z	femur_lat_tibia_r.tibia_upper_r.torque.X	femur_lat_tibia_r.tibia_upper_r.torque.Y	femur_lat_tibia_r.tibia_upper_r.torque.Z	femur_lat_tibia_r.femur_lat_r.force.X	femur_lat_tibia_r.femur_lat_r.force.Y	femur_lat_tibia_r.femur_lat_r.force.Z	femur_lat_tibia_r.femur_lat_r.torque.X	femur_lat_tibia_r.femur_lat_r.torque.Y	femur_lat_tibia_r.femur_lat_r.torque.Z	aACL_R	pACL_R	aPCL_R	pPCL_R	aMCL_R	mMCL_R	pMCL_R	aLCL_R	mLCL_R	pLCL_R	aPCL_L	pPCL_L	aMCL_L	aLCL_L	ground_prescribedForce_-80_fx	ground_prescribedForce_-80_fy	ground_prescribedForce_-80_fz
      0.00000000	     37.48087652	     28.28714471	     30.25598133	     13.28977762	     14.47626353	     15.91713841	      0.00000000	     15.74696616	     15.91205108	     25.38325239	      7.34603652	     27.93927808	     20.68957741	     14.51222487	     12.16230296	     19.66717628	     11.82946764	     11.16605282	      6.84760264	     18.12681708	     27.55933735	     20.56469162	     63.94906620	     55.74758807	     18.09791099	      9.16719286	     20.03897647	    134.91243862	     79.35080778	     68.15025371	    107.96901025	     11.76840053	     10.43696042	    152.72720615	     92.44658902	     14.93332009	     15.26895791	     41.82851940	     21.62523106	     46.40594865	      8.86060096	     25.04818486	      7.96045570	     37.48087652	     28.28714471	     30.25598133	     13.28977762	     14.47626353	     15.91713841	     42.06683902	     20.39635155	     37.67631238	     36.01822118	      7.59254209	     27.93927808	     20.68957741	     14.51222487	     12.16230296	     19.66717628	     12.58139899	     11.16605282	      7.78214370	     18.12681708	     27.55933735	     20.56469162	     63.94906620	     55.74758807	     18.09791099	      9.16719286	     20.03897647	     52.59637061	     32.48786114	     37.22481259	     39.87514307	     67.71424671	     31.64857027	    152.72720615	     92.44658902	     14.93332009	     15.26895791	     41.82851940	     21.62523106	     46.40594865	      8.86060096	     25.04818486	      7.96045570	    124.99446086	    124.99446086	     44.97041513	     44.97041513	     60.98287244	     60.98287244	      2.76307435	     50.99597937	     -9.56042239	      5.21997485	     -0.02578839	      1.48581788	     -2.76307435	    -50.99597937	      9.56042239	     -1.74637766	      0.02558040	     -0.48301696	     -3.31599387	     20.97615968	     -3.40468921	      0.94473225	     -0.02138609	     -1.00501789	      3.31599387	    -20.97615968	      3.40468921	      0.28075727	      0.00368718	     -0.29758878	    134.31803728	      3.89186243	      9.17448209	     -3.75597577	      3.27383673	     54.53520610	   -134.31803728	     -3.89186243	     -9.17448209	      0.16446053	     -4.16681269	     -1.57520099	      3.83890831	     -2.20164917	     -2.46562994	      0.95815733	     -0.06403426	      1.54882237	     -3.83890831	      2.20164917	      2.46562994	      0.00147505	      0.11110932	     -0.09673992	      0.00000000	      0.00000000	      0.00000000	      0.00000000	      0.00000000	      0.00000000	      0.00000000	      0.00000000	      0.00000000	      0.00000000	      0.00000000	      0.00000000	      0.00000000	      0.00000000	      0.00000000	      0.00000000	      0.00000000	      0.00000000	      0.00000000	      0.00000000	      0.00000000	      0.00000000	      0.00000000	      0.00000000	   -783.49374123	   -180.80804912	    322.79572266	     -6.28358968	     18.14484735	     -5.05928670	    783.49374123	    180.80804912	   -322.79572266	    134.18256966	    -13.33878533	    318.18928790	      0.00000000	      0.00000000	      0.00000000	      0.00000000	      0.00000000	      0.00000000	      0.00000000	      0.00000000	      0.00000000	      0.00000000	      0.00000000	      0.00000000	      0.00000000	      0.00000000	    952.72366576	    575.94644523	     14.03944255	      7.36722779	      2.07134337	      0.00000000	      0.00000000	      0.00000000	      0.00000000	      0.00000000	      0.00000001	      0.00000000	     19.10100000	   -108.32880000	      0.00000000
      0.00064790	     37.47659040	     28.27997915	     30.24959266	     13.28100733	     14.47138764	     15.91522931	      0.00000000	     15.88983319	     16.10623152	     25.89434923	      7.38838735	     27.93347515	     20.66912817	     14.50858996	     12.16013272	     19.66539523	     11.72241972	     11.16055809	      6.94591695	     18.12300281	     27.55363090	     20.56111206	     63.93923491	     55.74194144	     18.09143957	      9.16631204	     20.03820605	    135.64474830	     81.16023925	     69.06588987	    109.71354814	     11.37336153	     10.20247212	    151.29097712	     92.37318620	     14.95912147	     15.27973701	     42.28133910	     21.52647138	     46.28069627	      8.95264444	     25.12061867	      7.99219937	     37.47659040	     28.27997915	     30.24959266	     13.28100733	     14.47138764	     15.91522931	     42.06493185	     20.39376669	     37.67418207	     36.00573301	      7.58656554	     27.93347515	     20.66912817	     14.50858996	     12.16013272	     19.66539523	     12.58095283	     11.16055809	      7.77871968	     18.12300281	     27.55363090	     20.56111206	     63.93923491	     55.74194144	     18.09143957	      9.16631204	     20.03820605	     52.59314318	     32.48315429	     37.22014832	     39.87039732	     67.71237131	     31.64767811	    152.72137078	     92.44511917	     14.93361605	     15.26915710	     41.82547937	     21.62414131	     46.40486116	      8.85944611	     25.04611847	      7.95962671	    124.91797001	    124.91797001	     44.96322974	     44.96322974	     60.97509898	     60.97509898	      2.76307435	     50.99597937	     -9.56042239	      5.21997485	     -0.02578839	      1.48581788	     -2.76307435	    -50.99597937	      9.56042239	     -1.74637766	      0.02558040	     -0.48301696	     -3.31599387	     20.97615968	     -3.40468921	      0.94473225	     -0.02138609	     -1.00501789	      3.31599387	    -20.97615968	      3.40468921	      0.28075727	      0.00368718	     -0.29758878	    164.77914594	    -23.03205925	     41.79422330	    -16.38611306	      4.40894582	     67.26296933	   -164.77914594	     23.03205925	    -41.79422330	     -0.17191715	     -6.31513501	     -3.03125493	      4.83113438	     -2.85241187	     -1.56300055	      0.59160465	     -0.06664352	      1.94987767	     -4.83113438	      2.85241187	      1.56300055	      0.00974717	      0.08500914	     -0.12465427	      0.00000000	      0.00000000	      0.00000000	      0.00000000	      0.00000000	      0.00000000	      0.00000000	      0.00000000	      0.00000000	      0.00000000	      0.00000000	      0.00000000	      0.00000000	      0.00000000	      0.00000000	      0.00000000	      0.00000000	      0.00000000	      0.00000000	      0.00000000	      0.00000000	      0.00000000	      0.00000000	      0.00000000	   -907.15319618	    -71.33225076	    176.23919918	     -3.21628037	     13.69062677	    -10.97280328	    907.15319618	     71.33225076	   -176.23919918	     72.91455442	    -13.36436635	    369.86166147	      0.00000000	      0.00000000	      0.00000000	      0.00000000	      0.00000000	      0.00000000	      0.00000000	      0.00000000	      0.00000000	      0.00000000	      0.00000000	      0.00000000	      0.00000000	      0.00000000	    932.97650151	    529.46017834	    -14.20139027	    -23.61117930	    -30.34541832	      0.00000000	      0.00000000	      0.00000000	      0.00000000	      0.00000000	      0.00000001	      0.00000000	     19.10100000	   -108.32880000	      0.00000000
      0.00129580	     37.46379521	     28.25896216	     30.23075337	     13.25660233	     14.45725151	     15.90953391	      0.00000000	     16.22364168	     16.54613380	     27.07194253	      7.50903928	     27.91635648	     20.61465102	     14.49792566	     12.15370691	     19.66006253	     11.50818684	     11.14493118	      7.16830760	     18.11175527	     27.53679634	     20.55050741	     63.91015948	     55.72506229	     18.07271119	      9.16368096	     20.03588401	    137.38641365	     85.22503155	     71.35126114	    113.81367445	     10.54245813	      9.68723541	    147.76994011	     92.12227516	     15.02100492	     15.30510948	     43.37263061	     21.33058431	     46.01670794	      9.19976934	     25.29651170	      8.06362598	     37.46379521	     28.25896216	     30.23075337	     13.25660233	     14.45725151	     15.90953391	     42.05918919	     20.38606177	     37.66777624	     35.96954112	      7.57021158	     27.91635648	     20.61465102	     14.49792566	     12.15370691	     19.66006253	     12.57960835	     11.14493118	      7.76891522	     18.11175527	     27.53679634	     20.55050741	     63.91015948	     55.72506229	     18.07271119	      9.16368096	     20.03588401	     52.58344376	     32.46915907	     37.20624510	     39.85624054	     67.70671123	     31.64498559	    152.70378228	     92.44067934	     14.93449416	     15.26974285	     41.81635606	     21.62086147	     46.40157693	      8.85600675	     25.03992629	      7.95714648	    124.70377778	    124.70377778	     44.94190126	     44.94190126	     60.95208346	     60.95208346	      2.76307435	     50.99597937	     -9.56042239	      5.21997485	     -0.02578839	      1.48581788	     -2.76307435	    -50.99597937	      9.56042239	     -1.74637766	      0.02558040	     -0.48301696	     -3.31599387	     20.97615968	     -3.40468921	      0.94473225	     -0.02138609	     -1.00501789	      3.31599387	    -20.97615968	      3.40468921	      0.28075727	      0.00368718	     -0.29758878	    177.78952804	    -38.74581028	     50.08407378	    -19.39387417	      4.82767711	     72.75802551	   -177.78952804	     38.74581028	    -50.08407378	     -0.50211547	     -7.01358279	     -3.82186157	      5.48061333	     -3.40895121	     -1.32009408	      0.48872282	     -0.07161195	      2.21354493	     -5.48061333	      3.40895121	      1.32009408	      0.01449438	      0.08059296	     -0.14753830	      0.00000000	      0.00000000	      0.00000000	      0.00000000	      0.00000000	      0.00000000	      0.00000000	      0.00000000	      0.00000000	      0.00000000	      0.00000000	      0.00000000	      0.00000000	      0.00000000	      0.00000000	      0.00000000	      0.00000000	      0.00000000	      0.00000000	      0.00000000	      0.00000000	      0.00000000	      0.00000000	      0.00000000	   -977.99028785	    -12.82898404	    142.18370761	     -2.23880000	     13.05601123	    -14.17822699	    977.99028785	     12.82898404	   -142.18370761	     58.25672510	    -13.94326305	    399.40945412	      0.00000000	      0.00000000	      0.00000000	      0.00000000	      0.00000000	      0.00000000	      0.00000000	      0.00000000	      0.00000000	      0.00000000	      0.00000000	      0.00000000	      0.00000000	      0.00000000	    920.33561138	    507.19181412	    -21.88898131	    -32.63708476	    -40.15938795	      0.00000000	      0.00000000	      0.00000000	      0.00000000	      0.00000000	      0.00000001	      0.00000000	     19.10100000	   -108.32880000	      0.00000000
      0.00220300	     37.43178545	     28.20766475	     30.18442667	     13.20109275	     14.42329452	     15.89529915	      0.00000000	     16.81911311	     17.32647951	     29.07284525	      7.73206074	     27.87423763	     20.49737183	     14.47188607	     12.13781532	     19.64666551	     11.18304234	     11.10835184	      7.53839185	     18.08409682	     27.49537407	     20.52426059	     63.83836893	     55.68275632	     18.02783237	      9.15709305	     20.02999529	    140.53743403	     91.83917422	     75.62495204	    120.78316664	      9.22758771	      8.81425503	    140.79844401	     91.48533897	     15.14746699	     15.35825907	     45.55365031	     21.02156206	     45.56403458	      9.73950528	     25.64067596	      8.19252207	     37.43178545	     28.20766475	     30.18442667	     13.20109275	     14.42329452	     15.89529915	     42.04464595	     20.36682726	     37.65158459	     35.88264660	      7.53380755	     27.87423763	     20.49737183	     14.47188607	     12.13781532	     19.64666551	     12.57619972	     11.10835184	      7.74575607	     18.08409682	     27.49537407	     20.52426059	     63.83836893	     55.68275632	     18.02783237	      9.15709305	     20.02999529	     52.55894741	     32.43434204	     37.17153571	     39.82085984	     67.69232962	     31.63814464	    152.65917541	     92.42938481	     14.93666639	     15.27117127	     41.79336108	     21.61256083	     46.39322466	      8.84743127	     25.02436083	      7.95092622	    124.21259092	    124.21259092	     44.88897009	     44.88897009	     60.89516425	     60.89516425	      2.76307435	     50.99597937	     -9.56042239	      5.21997485	     -0.02578839	      1.48581788	     -2.76307435	    -50.99597937	      9.56042239	     -1.74637766	      0.02558040	     -0.48301696	     -3.31599387	     20.97615968	     -3.40468921	      0.94473225	     -0.02138609	     -1.00501789	      3.31599387	    -20.97615968	      3.40468921	      0.28075727	      0.00368718	     -0.29758878	    182.76319526	    -47.86552980	     56.08187055	    -21.62189362	      5.01408348	     74.90216656	   -182.76319526	     47.86552980	    -56.08187055	     -0.67840874	     -7.37799398	     -4.24609453	      6.06976507	     -4.07538687	     -1.28186520	      0.46583362	     -0.07825686	      2.45405851	     -6.06976507	      4.07538687	      1.28186520	      0.01940114	      0.08375521	     -0.17390215	      0.00000000	      0.00000000	      0.00000000	      0.00000000	      0.00000000	      0.00000000	      0.00000000	      0.00000000	      0.00000000	      0.00000000	      0.00000000	      0.00000000	      0.00000000	      0.00000000	      0.00000000	      0.00000000	      0.00000000	      0.00000000	      0.00000000	      0.00000000	      0.00000000	      0.00000000	      0.00000000	      0.00000000	  -1035.04753668	     16.09396144	    135.73144776	     -1.89618499	     13.39466240	    -16.05315877	   1035.04753668	    -16.09396144	   -135.73144776	     55.24330827	    -14.67072391	    423.01371466	      0.00000000	      0.00000000	      0.00000000	      0.00000000	      0.00000000	      0.00000000	      0.00000000	      0.00000000	      0.00000000	      0.00000000	      0.00000000	      0.00000000	      0.00000000	      0.00000000	    910.32746230	    498.42969795	    -18.44015271	    -29.70959895	    -37.51129591	      0.00000000	      0.00000000	      0.00000000	      0.00000000	      0.00000000	      0.00000001	      0.00000000	     19.10100000	   -108.32880000	      0.00000000
